<svg id="Layer_1" data-name="Layer 1" xmlns="http://www.w3.org/2000/svg" width="203.794" height="69.332" viewBox="0 0 203.794 69.332">
  <g>
    <path d="M2.2,2.2H201.6V67.138H2.2ZM0,69.332H203.794V0H0Z" fill="#1d1d1b"/>
    <path d="M52.253,26.475h-.144a10.186,10.186,0,0,1-.456,2.272l-2.834,8.83h6.669l-2.8-8.756a11.522,11.522,0,0,1-.435-2.346" fill="#00833e"/>
    <path d="M96.1,26.6H93.229V43.121h2.906a7.837,7.837,0,0,0,5.989-2.294A8.685,8.685,0,0,0,104.3,34.6a7.889,7.889,0,0,0-2.152-5.856A8.214,8.214,0,0,0,96.1,26.6" fill="#00833e"/>
    <path d="M13.077,53.664h177.64v-38H13.077ZM37.626,28a11.43,11.43,0,0,0-5.959-1.562,7.918,7.918,0,0,0-5.927,2.307A8.564,8.564,0,0,0,23.488,35a8.411,8.411,0,0,0,2.126,6.027,7.527,7.527,0,0,0,5.727,2.246,12.219,12.219,0,0,0,6.285-1.676v5.361a17.212,17.212,0,0,1-7.454,1.383q-5.993,0-9.428-3.526a12.894,12.894,0,0,1-3.431-9.4,13.765,13.765,0,0,1,3.857-10.14,13.52,13.52,0,0,1,10.023-3.891,18.7,18.7,0,0,1,6.433.968ZM58.686,47.88l-1.853-5.8H47.565l-1.835,5.8H39.369l9.485-26.058h6.959L65.082,47.88Zm25.162,0H68.334V21.822H74.2v21.3h9.648Zm22.836-3.637Q102.9,47.881,96.59,47.88H87.363V21.822H96.59q13.882,0,13.884,12.7a12.815,12.815,0,0,1-3.79,9.718m23.741,3.637H114.8V21.822h15.029V26.6h-9.159v5.8h8.521v4.762h-8.521V43.12h9.758Zm27.622,0H152.12L141.384,31.51a24.321,24.321,0,0,1-1.313-2.162H140c.1.919.153,2.326.153,4.213V47.88h-5.546V21.822h6.321L151.268,37.69q.708,1.071,1.307,2.123h.074a27.583,27.583,0,0,1-.146-3.578V21.822h5.544Zm22.48,0-1.859-5.8H169.4l-1.837,5.8h-6.359l9.483-26.058h6.96l9.268,26.058Z" fill="#00833e"/>
    <path d="M174.089,26.475h-.146a9.961,9.961,0,0,1-.454,2.272l-2.838,8.83h6.674l-2.8-8.756a11.311,11.311,0,0,1-.437-2.346" fill="#00833e"/>
  </g>
</svg>
